<svg xmlns="http://www.w3.org/2000/svg" width="85" height="56" viewBox="0 0 85 56"><defs><clipPath id="a"><path fill="#fff" d="M0 0h84.04v50.699H0z"/></clipPath></defs><path fill="none" d="M0 0h85v56H0z"/><g clip-path="url(#a)" fill="#fff" transform="translate(.075 2.153)"><path d="M1.833 50.413a4.776 4.776 0 0 1-1.578-.742l.7-1.546a4.733 4.733 0 0 0 1.356.672 5.091 5.091 0 0 0 1.572.253 2.511 2.511 0 0 0 1.293-.26.785.785 0 0 0 .419-.691.659.659 0 0 0-.247-.526 1.882 1.882 0 0 0-.634-.336q-.387-.126-1.046-.279a14.378 14.378 0 0 1-1.665-.482 2.692 2.692 0 0 1-1.109-.773 2.086 2.086 0 0 1-.463-1.419 2.469 2.469 0 0 1 .419-1.4 2.815 2.815 0 0 1 1.261-1 5.152 5.152 0 0 1 2.06-.368 6.815 6.815 0 0 1 1.661.2 4.911 4.911 0 0 1 1.42.583l-.634 1.559a4.948 4.948 0 0 0-2.459-.7 2.307 2.307 0 0 0-1.274.279.851.851 0 0 0-.412.736.719.719 0 0 0 .475.678 7.467 7.467 0 0 0 1.455.447 14.477 14.477 0 0 1 1.661.481 2.75 2.75 0 0 1 1.109.761 2.041 2.041 0 0 1 .463 1.407 2.421 2.421 0 0 1-.425 1.388 2.855 2.855 0 0 1-1.274 1 5.2 5.2 0 0 1-2.067.368 7.271 7.271 0 0 1-2.035-.286m15.291-3.356-1.192 1.242v2.244h-2.043v-8.874h2.041v4.145l3.93-4.145h2.282l-3.676 3.956 3.892 4.919h-2.4Zm17.171-5.389h2.015l-3.448 5.73v3.144h-2.053v-3.165Zm21.533 0-2.9 8.874h-2.209l-1.952-6.009-2.016 6.009H44.56l-2.916-8.874h2.13l2 6.238 2.092-6.238h1.9l2.029 6.288 2.067-6.288Zm11.249 6.973h-4.117l-.786 1.9h-2.1l3.955-8.874h2.028l3.968 8.874h-2.165Zm-.646-1.559-1.407-3.4-1.407 3.4ZM80.101 3.94a13.488 13.488 0 0 0-19.052 0l-14.57 14.57a7.142 7.142 0 0 1-10.088 0l-4.482 4.482a13.488 13.488 0 0 0 19.052 0l14.57-14.57a7.133 7.133 0 1 1 0 10.088l-4.482 4.482A13.472 13.472 0 1 0 80.101 3.94m-42.54 4.482a7.143 7.143 0 0 1 10.088 0l4.481-4.483a13.488 13.488 0 0 0-19.052 0l-14.57 14.57a7.133 7.133 0 0 1-10.087 0q-.259-.259-.485-.537c-.024-.029-.044-.061-.067-.091a6.96 6.96 0 0 1-.359-.489l-.01-.022a7.152 7.152 0 0 1-.014-7.787l.028-.047c.1-.158.219-.309.337-.459.031-.04.058-.082.09-.121.127-.155.264-.3.406-.45.027-.028.05-.058.078-.086a7.143 7.143 0 0 1 10.088 0l4.482-4.482a13.466 13.466 0 1 0 0 19.052Z"/><path d="M29.378 41.672h-2.015l2.422 4.025h2.057Zm51.154 0h2.015l-3.448 5.73v3.144h-2.054v-3.165Zm-4.921 0h-2.015l2.422 4.025h2.053Z"/></g></svg>