<?xml version="1.0" encoding="UTF-8"?><svg id="_イヤー_1" xmlns="http://www.w3.org/2000/svg" viewBox="0 0 179.76 128.9"><defs><style>.cls-1{fill:#3178c4;}.cls-2{fill:#0e367d;}.cls-3{fill:none;opacity:.2;}</style></defs><g><path class="cls-2" d="M28.58,102.68c-1-.29-1.8-.67-2.41-1.13l1.06-2.36c.58,.43,1.27,.77,2.07,1.03s1.6,.39,2.4,.39c.89,0,1.55-.13,1.97-.4,.43-.26,.64-.62,.64-1.05,0-.32-.13-.59-.38-.8-.25-.21-.57-.38-.97-.51-.39-.13-.92-.27-1.6-.43-1.03-.24-1.88-.49-2.53-.73-.66-.25-1.22-.64-1.69-1.18s-.71-1.26-.71-2.17c0-.79,.21-1.5,.64-2.14,.43-.64,1.07-1.14,1.92-1.52,.86-.37,1.9-.56,3.14-.56,.86,0,1.71,.1,2.53,.31,.82,.21,1.55,.5,2.17,.89l-.97,2.38c-1.25-.71-2.5-1.06-3.75-1.06-.88,0-1.53,.14-1.94,.43-.42,.28-.63,.66-.63,1.12s.24,.81,.73,1.03c.48,.23,1.22,.45,2.21,.67,1.03,.25,1.88,.49,2.53,.73,.66,.25,1.22,.63,1.69,1.16,.47,.53,.71,1.24,.71,2.15,0,.77-.22,1.48-.65,2.12-.43,.64-1.08,1.14-1.94,1.52-.86,.37-1.91,.56-3.15,.56-1.07,0-2.1-.15-3.1-.44Z"/><path class="cls-2" d="M51.9,97.57l-1.82,1.9v3.42h-3.11v-13.54h3.11v6.32l6-6.32h3.48l-5.61,6.03,5.94,7.5h-3.65l-4.33-5.32Z"/><path class="cls-2" d="M78.1,89.35h3.07l-5.26,8.74v4.8h-3.13v-4.83l5.32-8.7Z"/><path class="cls-2" d="M110.95,89.35l-4.43,13.54h-3.37l-2.98-9.17-3.08,9.17h-3.35l-4.45-13.54h3.25l3.06,9.51,3.19-9.51h2.9l3.09,9.59,3.15-9.59h3Z"/><path class="cls-2" d="M128.11,99.99h-6.29l-1.2,2.9h-3.21l6.03-13.54h3.09l6.05,13.54h-3.29l-1.2-2.9Zm-.99-2.38l-2.15-5.18-2.15,5.18h4.29Z"/><path class="cls-2" d="M147.97,31.79h0c-8.01-8.01-21.05-8.01-29.06,0l-22.23,22.23c-4.24,4.24-11.14,4.24-15.39,0l-6.84,6.84c4.01,4.01,9.27,6.01,14.53,6.01s10.52-2,14.53-6.01l22.23-22.23h0c4.24-4.24,11.15-4.24,15.39,0,2.12,2.12,3.18,4.91,3.18,7.69s-1.06,5.57-3.18,7.69c-4.24,4.24-11.14,4.24-15.39,0l-6.84,6.84c4.01,4.01,9.27,6.01,14.53,6.01s10.53-2,14.53-6.01c1.5-1.5,2.72-3.18,3.66-4.97,4.07-7.75,2.85-17.58-3.66-24.09Z"/><path class="cls-1" d="M83.08,38.63c4.24-4.24,11.15-4.24,15.39,0l6.84-6.84c-8.01-8.01-21.05-8.01-29.06,0l-22.23,22.23c-2.06,2.06-4.79,3.19-7.69,3.19s-5.64-1.13-7.69-3.19c-.26-.26-.51-.54-.74-.82-.04-.04-.07-.09-.1-.14-.19-.24-.38-.49-.55-.75,0-.01-.01-.02-.02-.03-2.35-3.59-2.36-8.28-.02-11.88,.02-.02,.03-.05,.04-.07,.16-.24,.33-.47,.51-.7,.05-.06,.09-.12,.14-.18,.19-.24,.4-.46,.62-.69,.04-.04,.08-.09,.12-.13h0c4.24-4.24,11.15-4.24,15.39,0l6.84-6.84c-8.01-8.01-21.05-8.01-29.06,0-8.01,8.01-8.01,21.05,0,29.06,4.01,4.01,9.27,6.01,14.53,6.01s10.53-2,14.53-6.01l22.23-22.23h0Z"/><polygon class="cls-1" points="70.59 89.35 67.52 89.35 71.21 95.49 74.35 95.49 70.59 89.35"/><path class="cls-2" d="M148.63,89.35h3.07l-5.26,8.74v4.8h-3.13v-4.83l5.32-8.7Z"/><polygon class="cls-1" points="141.12 89.35 138.05 89.35 141.74 95.49 144.88 95.49 141.12 89.35"/></g><polygon class="cls-3" points="153.98 0 153.98 0 25.78 0 25.78 0 0 0 0 0 0 25.78 0 103.12 0 128.9 25.78 128.9 153.98 128.9 179.76 128.9 179.76 103.12 179.76 25.78 179.76 0 179.76 0 153.98 0"/></svg>